<!DOCTYPE svg PUBLIC "-//W3C//DTD SVG 1.1//EN" "http://www.w3.org/Graphics/SVG/1.1/DTD/svg11.dtd">
<!-- Uploaded to: SVG Repo, www.svgrepo.com, Transformed by: SVG Repo Mixer Tools -->
<svg fill="none" width="100px" height="100px" viewBox="0 0 32 32"
    xmlns="http://www.w3.org/2000/svg">
    <g id="SVGRepo_bgCarrier" stroke-width="0"/>
    <g id="SVGRepo_tracerCarrier" stroke-linecap="round" stroke-linejoin="round"/>
    <g id="SVGRepo_iconCarrier">
        <path stroke="#000000" stroke-width="0.9" stroke-linejoin="round" stroke-linecap="round" d="M14.417 0c-0.568 0.016-1.125 0.286-1.594 0.807-0.26 0.292-0.479 0.615-0.661 0.964-0.469 0.885-0.563 1.885-0.74 2.854-0.328 1.818-0.651 3.635-0.969 5.453-0.036 0.214-0.125 0.302-0.323 0.359-2.359 0.745-4.719 1.484-7.063 2.25-0.516 0.167-1.031 0.385-1.484 0.672-1.391 0.885-1.599 2.339-0.557 3.615 0.464 0.563 1.057 0.953 1.714 1.245 1.469 0.656 2.938 1.302 4.401 1.964 0.026 0.010 0.047 0.016 0.068 0.026h-0.005l1.745 0.714c0 0.031 0 0.057 0 0.094-0.266 2.708-0.521 5.417-0.776 8.13-0.052 0.557-0.016 1.104 0.182 1.641 0.422 1.156 1.417 1.526 2.505 0.932 0.495-0.271 0.891-0.661 1.25-1.089 1.828-2.167 3.661-4.328 5.484-6.5 0.146-0.177 0.271-0.198 0.484-0.13 0.464 0.156 0.927 0.307 1.391 0.464h0.005c0.026 0.016 0.057 0.026 0.094 0.042l0.193 0.057c1.661 0.552 3.573 1.031 5.234 1.583 0.536 0.177 0.833 0.219 1.396 0.13 0.417-0.063 0.792-0.083 1.104-0.313 0.802-0.443 1.328-1.276 1.318-2.245-0.005-0.568-0.208-1.083-0.469-1.578-1.094-2.078-2.182-4.151-3.281-6.224-0.104-0.198-0.099-0.323 0.052-0.5 1.839-2.151 3.672-4.313 5.51-6.474 0.359-0.427 0.682-0.875 0.87-1.411 0.411-1.167-0.12-2.094-1.333-2.318-0.547-0.094-1.109-0.063-1.646 0.089-2.635 0.698-5.266 1.391-7.891 2.094-0.234 0.063-0.349 0.021-0.474-0.193-1.063-1.792-2.141-3.578-3.229-5.354-0.245-0.411-0.536-0.792-0.87-1.135-0.495-0.49-1.068-0.729-1.635-0.714z
    M14.65 4.94c0.1 0.07 0.19 0.17 0.25 0.28 1.16 1.93 2.32 3.85 3.48 5.79 0.09 0.16 0.18 0.21 0.37 0.16 2.04-0.54 4.07-1.08 6.1-1.62 0.49-0.13 0.98-0.26 1.47-0.39-0.02 0.1-0.07 0.19-0.14 0.27-1.68 1.97-3.35 3.95-5.04 5.92-0.15 0.18-0.16 0.3-0.06 0.5 1.25 2.41 2.36 4.41 3.33 6.35l-4.93-1.36c-0.72-0.24-1.44-0.48-2.16-0.72-0.21-0.07-0.33-0.04-0.48 0.13-1.66 1.98-3.34 3.96-5.01 5.94-0.06 0.08-0.15 0.14-0.24 0.17 0.05-0.5 0.09-1.01 0.14-1.51 0.2-2.1 0.4-4.19 0.6-6.29-0.04-0.42 0.16-0.54-0.43-0.72-1.99-0.79-4.46-1.76-6.42-2.54 0.09-0.08 0.2-0.15 0.32-0.18 2.4-0.76 4.79-1.52 7.19-2.28 0.17-0.05 0.27-0.12 0.28-0.31 0.02-0.2 0.07-0.4 0.1-0.59 0.32-1.82 0.65-3.64 0.97-5.45 0.09-0.52 0.19-1.03 0.28-1.54z"/>
    </g>
</svg>
